<?xml version="1.0" encoding="UTF-8" standalone="no"?>
<!DOCTYPE svg PUBLIC "-//W3C//DTD SVG 1.0//EN" "http://www.w3.org/TR/2001/PR-SVG-20010719/DTD/svg10.dtd">
<svg width="47cm" height="28cm" viewBox="347 180 936 543" xmlns="http://www.w3.org/2000/svg" xmlns:xlink="http://www.w3.org/1999/xlink">
  <g id="Background">
    <g>
      <rect style="fill: #d8e5e5; fill-opacity: 1; stroke-opacity: 1; stroke-width: 2; stroke: #000000" x="713.557" y="305.148" width="144.95" height="118" rx="0" ry="0"/>
      <text font-size="12.8" style="fill: #000000; fill-opacity: 1; stroke: none;text-anchor:middle;font-family:sans-serif;font-style:normal;font-weight:normal" x="786.032" y="328.029">
        <tspan x="786.032" y="328.029"></tspan>
        <tspan x="786.032" y="344.029"></tspan>
        <tspan x="786.032" y="360.029"></tspan>
        <tspan x="786.032" y="376.029">Aggregator Step II/</tspan>
        <tspan x="786.032" y="392.029">Accounting Service</tspan>
        <tspan x="786.032" y="408.029"></tspan>
      </text>
    </g>
    <g>
      <rect style="fill: #ffffff; fill-opacity: 1; stroke-opacity: 1; stroke-width: 2; stroke: #ff0000" x="350.28" y="282.254" width="172.162" height="45.2791" rx="0" ry="0"/>
      <text font-size="12.8" style="fill: #000000; fill-opacity: 1; stroke: none;text-anchor:middle;font-family:sans-serif;font-style:normal;font-weight:normal" x="436.361" y="308.774">
        <tspan x="436.361" y="308.774">Niomon + EventLog</tspan>
      </text>
    </g>
    <g>
      <rect style="fill: #ffffff; fill-opacity: 1; stroke-opacity: 1; stroke-width: 2; stroke: #ff0000" x="351.101" y="340.504" width="174.15" height="46.1127" rx="0" ry="0"/>
      <text font-size="12.8" style="fill: #000000; fill-opacity: 1; stroke: none;text-anchor:middle;font-family:sans-serif;font-style:normal;font-weight:normal" x="438.176" y="367.441">
        <tspan x="438.176" y="367.441">UPP Verification Service</tspan>
      </text>
    </g>
    <g>
      <ellipse style="fill: #ffffff; fill-opacity: 1; stroke-opacity: 1; stroke-width: 2; stroke: #1e90ff" cx="614.803" cy="304.977" rx="32.4459" ry="25.4874"/>
      <text font-size="12.8" style="fill: #000000; fill-opacity: 1; stroke: none;text-anchor:middle;font-family:sans-serif;font-style:normal;font-weight:normal" x="614.803" y="308.859">
        <tspan x="614.803" y="308.859">kafka</tspan>
      </text>
    </g>
    <g>
      <line style="fill: none; stroke-opacity: 1; stroke-width: 2; stroke: #000000" x1="647.249" y1="304.977" x2="702.557" y2="305.12"/>
      <polygon style="fill: #000000; fill-opacity: 1; stroke-opacity: 1; stroke-width: 2; stroke: #000000" fill-rule="evenodd" points="702.544,310.12 712.557,305.145 702.57,300.12 "/>
    </g>
    <g>
      <ellipse style="fill: #ffffff; fill-opacity: 1; stroke-opacity: 1; stroke-width: 2; stroke: #1e90ff" cx="615.709" cy="423.1" rx="32.1626" ry="25.3547"/>
      <text font-size="12.8" style="fill: #000000; fill-opacity: 1; stroke: none;text-anchor:middle;font-family:sans-serif;font-style:normal;font-weight:normal" x="615.709" y="426.981">
        <tspan x="615.709" y="426.981">http</tspan>
      </text>
    </g>
    <g>
      <line style="fill: none; stroke-opacity: 1; stroke-width: 2; stroke: #000000" x1="647.872" y1="423.1" x2="702.557" y2="423.14"/>
      <polygon style="fill: #000000; fill-opacity: 1; stroke-opacity: 1; stroke-width: 2; stroke: #000000" fill-rule="evenodd" points="702.553,428.14 712.557,423.147 702.561,418.14 "/>
    </g>
    <g>
      <rect style="fill: #ffffff; fill-opacity: 1; stroke-opacity: 1; stroke-width: 2; stroke: #ff0000" x="350.154" y="403.519" width="172.769" height="38.7402" rx="0" ry="0"/>
      <text font-size="12.8" style="fill: #000000; fill-opacity: 1; stroke: none;text-anchor:middle;font-family:sans-serif;font-style:normal;font-weight:normal" x="436.539" y="426.77">
        <tspan x="436.539" y="426.77">UVS</tspan>
      </text>
    </g>
    <g>
      <path style="fill: none; stroke-opacity: 1; stroke-width: 2; stroke: #000000" d="M 522.442 304.893 C 539.42,304.893 565.379,304.977 571.357,304.977"/>
      <polygon style="fill: #000000; fill-opacity: 1; stroke-opacity: 1; stroke-width: 2; stroke: #000000" fill-rule="evenodd" points="571.357,309.977 581.357,304.977 571.357,299.977 "/>
    </g>
    <g>
      <path style="fill: none; stroke-opacity: 1; stroke-width: 2; stroke: #000000" d="M 525.251 363.56 C 544.257,363.56 572.854,323 580.86,323"/>
      <polygon style="fill: #000000; fill-opacity: 1; stroke-opacity: 1; stroke-width: 2; stroke: #000000" fill-rule="evenodd" points="580.86,328 590.86,323 580.86,318 "/>
    </g>
    <g>
      <path style="fill: none; stroke-opacity: 1; stroke-width: 2; stroke: #000000" d="M 522.923 422.889 C 542.629,422.889 563.838,423.1 572.546,423.1"/>
      <polygon style="fill: #000000; fill-opacity: 1; stroke-opacity: 1; stroke-width: 2; stroke: #000000" fill-rule="evenodd" points="572.546,428.1 582.546,423.1 572.546,418.1 "/>
    </g>
    <g>
      <polygon style="fill: #ffffff; fill-opacity: 1; stroke-opacity: 1; stroke-width: 2; stroke: #000000" fill-rule="evenodd" points="353.326,181.01 576.676,181.01 588.676,193.01 588.676,255.906 353.326,255.906 "/>
      <polyline style="fill: none; stroke-opacity: 1; stroke-width: 1; stroke: #000000" points="576.676,181.01 576.676,193.01 588.676,193.01 "/>
      <text font-size="5.6896" style="fill: #000000; fill-opacity: 1; stroke: none;text-anchor:start;font-family:monospace;font-style:normal;font-weight:normal" x="360.326" y="199.291">
        <tspan x="360.326" y="199.291">"event":{</tspan>
        <tspan xml:space="preserve" x="360.326" y="206.403">  "id":"Unique Id of event as UUID",</tspan>
        <tspan xml:space="preserve" x="360.326" y="213.515">  "ownerId":"User Id on Keycloak as UUID",</tspan>
        <tspan xml:space="preserve" x="360.326" y="220.627">  "identityId":"OID as UUID",</tspan>
        <tspan xml:space="preserve" x="360.326" y="227.739">  "category":"upp_verification | anchoring | uvs_verification",</tspan>
        <tspan xml:space="preserve" x="360.326" y="234.851">  "sub_category": "extra category for event",</tspan>
        <tspan xml:space="preserve" x="360.326" y="241.963">  "occurredAt":"Timestamp of event"</tspan>
        <tspan x="360.326" y="249.075">}</tspan>
      </text>
    </g>
    <g>
      <polygon style="fill: #ffffff; fill-opacity: 1; stroke-opacity: 1; stroke-width: 2; stroke: #000000" fill-rule="evenodd" points="351.825,452.994 483.625,452.994 495.625,464.994 495.625,506.272 351.825,506.272 "/>
      <polyline style="fill: none; stroke-opacity: 1; stroke-width: 1; stroke: #000000" points="483.625,452.994 483.625,464.994 495.625,464.994 "/>
      <text font-size="5.64444" style="fill: #000000; fill-opacity: 1; stroke: none;text-anchor:start;font-family:monospace;font-style:normal;font-weight:normal" x="358.825" y="471.233">
        <tspan x="358.825" y="471.233">Every verification request </tspan>
        <tspan x="358.825" y="478.289">is matched against an event registry.</tspan>
        <tspan x="358.825" y="485.344">The tag will be matched</tspan>
        <tspan x="358.825" y="492.4">to a sub_category.</tspan>
        <tspan x="358.825" y="499.455"></tspan>
      </text>
    </g>
    <g>
      <polygon style="fill: #ffffff; fill-opacity: 1; stroke-opacity: 1; stroke-width: 2; stroke: #000000" fill-rule="evenodd" points="564.23,346.23 665.43,346.23 677.43,358.23 677.43,385.397 564.23,385.397 "/>
      <polyline style="fill: none; stroke-opacity: 1; stroke-width: 1; stroke: #000000" points="665.43,346.23 665.43,358.23 677.43,358.23 "/>
      <text font-size="5.64444" style="fill: #000000; fill-opacity: 1; stroke: none;text-anchor:start;font-family:monospace;font-style:normal;font-weight:normal" x="571.23" y="364.469">
        <tspan x="571.23" y="364.469">At this moment, it is </tspan>
        <tspan x="571.23" y="371.525">straightforward to know the </tspan>
        <tspan x="571.23" y="378.58">keycloak user id.</tspan>
      </text>
    </g>
    <g>
      <path style="fill: #ffffff; fill-opacity: 1; stroke-opacity: 1; stroke-width: 2; stroke: #000000" fill-rule="evenodd" d="M 725.39 320.643 C 733.39,315.143 737.39,313.309 745.39,313.309 C 753.39,313.309 757.39,315.143 765.39,320.643 L 765.39,349.976 C 757.39,355.476 753.39,357.309 745.39,357.309 C 737.39,357.309 733.39,355.476 725.39,349.976 L 725.39,320.643z"/>
      <path style="fill: none; stroke-opacity: 1; stroke-width: 2; stroke: #000000" d="M 725.39 320.643 C 733.39,326.143 737.39,327.976 745.39,327.976 C 753.39,327.976 757.39,326.143 765.39,320.643"/>
      <text font-size="12.8" style="fill: #000000; fill-opacity: 1; stroke: none;text-anchor:middle;font-family:sans-serif;font-style:normal;font-weight:normal" x="745.39" y="342.857">
        <tspan x="745.39" y="342.857">cass</tspan>
      </text>
    </g>
    <g>
      <ellipse style="fill: #ffffff; fill-opacity: 1; stroke-opacity: 1; stroke-width: 2; stroke: #1e90ff" cx="974.343" cy="422.97" rx="32.1626" ry="25.3547"/>
      <text font-size="12.8" style="fill: #000000; fill-opacity: 1; stroke: none;text-anchor:middle;font-family:sans-serif;font-style:normal;font-weight:normal" x="974.343" y="426.851">
        <tspan x="974.343" y="426.851">http</tspan>
      </text>
    </g>
    <g>
      <line style="fill: none; stroke-opacity: 1; stroke-width: 2; stroke: #000000" x1="858.507" y1="423.148" x2="931.18" y2="422.993"/>
      <polygon style="fill: #000000; fill-opacity: 1; stroke-opacity: 1; stroke-width: 2; stroke: #000000" fill-rule="evenodd" points="931.191,427.993 941.18,422.972 931.169,417.993 "/>
    </g>
    <g>
      <ellipse style="fill: #ffffff; fill-opacity: 1; stroke-opacity: 1; stroke-width: 2; stroke: #000000" cx="973.345" cy="584.858" rx="6" ry="6"/>
      <line style="fill: none; stroke-opacity: 1; stroke-width: 2; stroke: #000000" x1="949.345" y1="596.858" x2="997.345" y2="596.858"/>
      <line style="fill: none; stroke-opacity: 1; stroke-width: 2; stroke: #000000" x1="973.345" y1="590.858" x2="973.345" y2="620.858"/>
      <line style="fill: none; stroke-opacity: 1; stroke-width: 2; stroke: #000000" x1="973.345" y1="620.858" x2="949.345" y2="646.858"/>
      <line style="fill: none; stroke-opacity: 1; stroke-width: 2; stroke: #000000" x1="973.345" y1="620.858" x2="997.345" y2="646.858"/>
      <text font-size="12.7998" style="fill: #000000; fill-opacity: 1; stroke: none;text-anchor:middle;font-family:sans-serif;font-style:normal;font-weight:normal" x="973.345" y="670.739">
        <tspan x="973.345" y="670.739">a Stakeholder/a System</tspan>
      </text>
    </g>
    <g>
      <line style="fill: none; stroke-opacity: 1; stroke-width: 2; stroke: #000000" x1="973.726" y1="554.888" x2="974.343" y2="448.324"/>
      <polygon style="fill: #000000; fill-opacity: 1; stroke-opacity: 1; stroke-width: 2; stroke: #000000" fill-rule="evenodd" points="968.726,554.859 973.668,564.888 978.726,554.917 "/>
    </g>
    <g>
      <polygon style="fill: #ffffff; fill-opacity: 1; stroke-opacity: 1; stroke-width: 2; stroke: #000000" fill-rule="evenodd" points="844.001,464.198 958.801,464.198 970.801,476.198 970.801,503.365 844.001,503.365 "/>
      <polyline style="fill: none; stroke-opacity: 1; stroke-width: 1; stroke: #000000" points="958.801,464.198 958.801,476.198 970.801,476.198 "/>
      <text font-size="5.64444" style="fill: #000000; fill-opacity: 1; stroke: none;text-anchor:start;font-family:monospace;font-style:normal;font-weight:normal" x="851.001" y="482.437">
        <tspan x="851.001" y="482.437">Through an </tspan>
        <tspan x="851.001" y="489.493">Ubirch Token (thing:getinfo), </tspan>
        <tspan x="851.001" y="496.549">a first aggregation is possible.</tspan>
      </text>
    </g>
    <g>
      <polygon style="fill: #ffffff; fill-opacity: 1; stroke-opacity: 1; stroke-width: 2; stroke: #000000" fill-rule="evenodd" points="735.104,432.308 934.904,432.308 946.904,444.308 946.904,457.363 735.104,457.363 "/>
      <polyline style="fill: none; stroke-opacity: 1; stroke-width: 1; stroke: #000000" points="934.904,432.308 934.904,444.308 946.904,444.308 "/>
      <text font-size="5.64436" style="fill: #000000; fill-opacity: 1; stroke: none;text-anchor:start;font-family:monospace;font-style:normal;font-weight:normal" x="742.104" y="450.547">
        <tspan x="742.104" y="450.547">OID ^ Category ^ Date ^ [Hour | All Hours] | SubCategory </tspan>
      </text>
    </g>
    <g>
      <rect style="fill: #d8e5e5; fill-opacity: 1; stroke-opacity: 1; stroke-width: 2; stroke: #000000" x="1084.65" y="304.513" width="196.562" height="118" rx="0" ry="0"/>
      <text font-size="12.8" style="fill: #000000; fill-opacity: 1; stroke: none;text-anchor:middle;font-family:sans-serif;font-style:normal;font-weight:normal" x="1182.93" y="327.394">
        <tspan x="1182.93" y="327.394"></tspan>
        <tspan x="1182.93" y="343.394"></tspan>
        <tspan x="1182.93" y="359.394"></tspan>
        <tspan x="1182.93" y="375.394"></tspan>
        <tspan x="1182.93" y="391.394"></tspan>
        <tspan x="1182.93" y="407.394">Aggregator Step II/Enricher</tspan>
      </text>
    </g>
    <g>
      <path style="fill: #ffffff; fill-opacity: 1; stroke-opacity: 1; stroke-width: 2; stroke: #000000" fill-rule="evenodd" d="M 1093.45 325.815 C 1110.6,320.315 1119.17,318.481 1136.32,318.481 C 1153.47,318.481 1162.05,320.315 1179.2,325.815 L 1179.2,355.148 C 1162.05,360.648 1153.47,362.481 1136.32,362.481 C 1119.17,362.481 1110.6,360.648 1093.45,355.148 L 1093.45,325.815z"/>
      <path style="fill: none; stroke-opacity: 1; stroke-width: 2; stroke: #000000" d="M 1093.45 325.815 C 1110.6,331.315 1119.17,333.148 1136.32,333.148 C 1153.47,333.148 1162.05,331.315 1179.2,325.815"/>
      <text font-size="12.8" style="fill: #000000; fill-opacity: 1; stroke: none;text-anchor:middle;font-family:sans-serif;font-style:normal;font-weight:normal" x="1136.32" y="348.029">
        <tspan x="1136.32" y="348.029">postgresl [?]</tspan>
      </text>
    </g>
    <g>
      <line style="fill: none; stroke-opacity: 1; stroke-width: 2; stroke-dasharray: 4; stroke: #000000" x1="1006.51" y1="422.97" x2="1073.65" y2="422.577"/>
      <polygon style="fill: #000000; fill-opacity: 1; stroke-opacity: 1; stroke-width: 2; stroke: #000000" fill-rule="evenodd" points="1073.68,427.577 1083.65,422.519 1073.62,417.577 "/>
    </g>
    <g>
      <rect style="fill: #ffffff; fill-opacity: 1; stroke-opacity: 1; stroke-width: 2; stroke: #00ff00" x="1085.79" y="232.53" width="82.3" height="38" rx="0" ry="0"/>
      <text font-size="12.8" style="fill: #000000; fill-opacity: 1; stroke: none;text-anchor:middle;font-family:sans-serif;font-style:normal;font-weight:normal" x="1126.94" y="255.411">
        <tspan x="1126.94" y="255.411">Thing-API</tspan>
      </text>
    </g>
    <line style="fill: none; stroke-opacity: 1; stroke-width: 2; stroke-dasharray: 4; stroke: #000000" x1="1126.94" y1="270.53" x2="1146.8" y2="303.509"/>
    <g>
      <polygon style="fill: #ffffff; fill-opacity: 1; stroke-opacity: 1; stroke-width: 2; stroke: #000000" fill-rule="evenodd" points="1203.1,308.372 1266.9,308.372 1278.9,320.372 1278.9,347.539 1203.1,347.539 "/>
      <polyline style="fill: none; stroke-opacity: 1; stroke-width: 1; stroke: #000000" points="1266.9,308.372 1266.9,320.372 1278.9,320.372 "/>
      <text font-size="5.64436" style="fill: #000000; fill-opacity: 1; stroke: none;text-anchor:start;font-family:monospace;font-style:normal;font-weight:normal" x="1210.1" y="326.611">
        <tspan x="1210.1" y="326.611">Add extra info</tspan>
        <tspan x="1210.1" y="333.667">of interest and </tspan>
        <tspan x="1210.1" y="340.722">that be available</tspan>
      </text>
    </g>
    <g>
      <rect style="fill: #ffffff; fill-opacity: 1; stroke-opacity: 1; stroke-width: 2; stroke: #00ff00" x="1186.29" y="230.824" width="82.15" height="38" rx="0" ry="0"/>
      <text font-size="12.8" style="fill: #000000; fill-opacity: 1; stroke: none;text-anchor:middle;font-family:sans-serif;font-style:normal;font-weight:normal" x="1227.36" y="253.705">
        <tspan x="1227.36" y="253.705">Other-API</tspan>
      </text>
    </g>
    <line style="fill: none; stroke-opacity: 1; stroke-width: 2; stroke-dasharray: 4; stroke: #000000" x1="1227.36" y1="268.824" x2="1211.07" y2="303.546"/>
    <g>
      <line style="fill: none; stroke-opacity: 1; stroke-width: 2; stroke-dasharray: 4; stroke: #000000" x1="859.512" y1="364.03" x2="1072.65" y2="363.689"/>
      <polygon style="fill: #000000; fill-opacity: 1; stroke-opacity: 1; stroke-width: 2; stroke: #000000" fill-rule="evenodd" points="1072.65,368.689 1082.65,363.673 1072.64,358.689 "/>
    </g>
    <line style="fill: none; stroke-opacity: 1; stroke-width: 2; stroke-dasharray: 4; stroke: #000000" x1="971.579" y1="363.851" x2="973.111" y2="396.629"/>
    <g>
      <ellipse style="fill: #ffffff; fill-opacity: 1; stroke-opacity: 1; stroke-width: 2; stroke: #1e90ff" cx="1182.94" cy="531.276" rx="32.1626" ry="25.3547"/>
      <text font-size="12.8" style="fill: #000000; fill-opacity: 1; stroke: none;text-anchor:middle;font-family:sans-serif;font-style:normal;font-weight:normal" x="1182.94" y="535.157">
        <tspan x="1182.94" y="535.157">http</tspan>
      </text>
    </g>
    <g>
      <line style="fill: none; stroke-opacity: 1; stroke-width: 2; stroke: #000000" x1="1182.93" y1="422.513" x2="1182.93" y2="493.921"/>
      <polygon style="fill: #000000; fill-opacity: 1; stroke-opacity: 1; stroke-width: 2; stroke: #000000" fill-rule="evenodd" points="1177.93,493.922 1182.93,503.921 1187.93,493.921 "/>
    </g>
    <text font-size="12.7998" style="fill: #000000; fill-opacity: 1; stroke: none;text-anchor:start;font-family:sans-serif;font-style:normal;font-weight:normal" x="849.55" y="235.463">
      <tspan x="849.55" y="235.463"></tspan>
    </text>
    <g>
      <line style="fill: none; stroke-opacity: 1; stroke-width: 2; stroke: #000000" x1="1153.74" y1="543.756" x2="1059.91" y2="583.857"/>
      <polygon style="fill: #000000; fill-opacity: 1; stroke-opacity: 1; stroke-width: 2; stroke: #000000" fill-rule="evenodd" points="1057.95,579.26 1050.72,587.787 1061.88,588.455 "/>
    </g>
    <g>
      <polygon style="fill: #ffffff; fill-opacity: 1; stroke-opacity: 1; stroke-width: 2; stroke: #000000" fill-rule="evenodd" points="929.115,682.667 992.915,682.667 1004.92,694.667 1004.92,721.834 929.115,721.834 "/>
      <polyline style="fill: none; stroke-opacity: 1; stroke-width: 1; stroke: #000000" points="992.915,682.667 992.915,694.667 1004.92,694.667 "/>
      <text font-size="5.64436" style="fill: #000000; fill-opacity: 1; stroke: none;text-anchor:start;font-family:monospace;font-style:normal;font-weight:normal" x="936.115" y="700.906">
        <tspan x="936.115" y="700.906">check counter </tspan>
        <tspan x="936.115" y="707.962">app for second</tspan>
        <tspan x="936.115" y="715.018">layer aggregation</tspan>
      </text>
    </g>
    <g>
      <rect style="fill: #ffffff; fill-opacity: 1; stroke-opacity: 1; stroke-width: 2; stroke: #ff0000" x="348.024" y="570.519" width="81.0988" height="29.0556" rx="0" ry="0"/>
      <text font-size="5.64444" style="fill: #000000; fill-opacity: 1; stroke: none;text-anchor:middle;font-family:sans-serif;font-style:normal;font-weight:normal" x="388.573" y="586.758">
        <tspan x="388.573" y="586.758">Acct Event Producer</tspan>
      </text>
    </g>
    <g>
      <ellipse style="fill: #ffffff; fill-opacity: 1; stroke-opacity: 1; stroke-width: 2; stroke: #1e90ff" cx="377.44" cy="637.891" rx="24.5697" ry="22.8128"/>
      <text font-size="5.64444" style="fill: #000000; fill-opacity: 1; stroke: none;text-anchor:middle;font-family:sans-serif;font-style:normal;font-weight:normal" x="377.44" y="639.602">
        <tspan x="377.44" y="639.602">interface</tspan>
      </text>
    </g>
    <g>
      <rect style="fill: #d8e5e5; fill-opacity: 1; stroke-opacity: 1; stroke-width: 2; stroke: #000000" x="520.371" y="571.269" width="80.7" height="29.0556" rx="0" ry="0"/>
      <text font-size="5.64444" style="fill: #000000; fill-opacity: 1; stroke: none;text-anchor:middle;font-family:sans-serif;font-style:normal;font-weight:normal" x="560.721" y="587.508">
        <tspan x="560.721" y="587.508">Counter/aggregators</tspan>
      </text>
    </g>
    <g>
      <rect style="fill: #ffffff; fill-opacity: 1; stroke-opacity: 1; stroke-width: 2; stroke: #00ff00" x="433.523" y="571.769" width="81.0988" height="29.0556" rx="0" ry="0"/>
      <text font-size="5.64444" style="fill: #000000; fill-opacity: 1; stroke: none;text-anchor:middle;font-family:sans-serif;font-style:normal;font-weight:normal" x="474.072" y="588.008">
        <tspan x="474.072" y="588.008">External Data</tspan>
      </text>
    </g>
    <g>
      <polygon style="fill: #ffffff; fill-opacity: 1; stroke-opacity: 1; stroke-width: 2; stroke: #000000" fill-rule="evenodd" points="415.523,623.768 441.923,623.768 453.923,635.768 453.923,648.824 415.523,648.824 "/>
      <polyline style="fill: none; stroke-opacity: 1; stroke-width: 1; stroke: #000000" points="441.923,623.768 441.923,635.768 453.923,635.768 "/>
      <text font-size="5.64444" style="fill: #000000; fill-opacity: 1; stroke: none;text-anchor:start;font-family:monospace;font-style:normal;font-weight:normal" x="422.523" y="642.007">
        <tspan x="422.523" y="642.007">a note</tspan>
      </text>
    </g>
  </g>
</svg>
