<?xml version="1.0" encoding="UTF-8" standalone="no"?>
<!DOCTYPE svg PUBLIC "-//W3C//DTD SVG 1.0//EN" "http://www.w3.org/TR/2001/PR-SVG-20010719/DTD/svg10.dtd">
<svg width="43cm" height="11cm" viewBox="349 255 845 215" xmlns="http://www.w3.org/2000/svg" xmlns:xlink="http://www.w3.org/1999/xlink">
  <g id="Background">
    <g>
      <rect style="fill: #73b9ff; fill-opacity: 1; stroke-opacity: 1; stroke-width: 2; stroke: #000000" x="654.798" y="256.932" width="322.219" height="212.593" rx="0" ry="0"/>
      <text font-size="12.8" style="fill: #000000; fill-opacity: 1; stroke: none;text-anchor:middle;font-family:sans-serif;font-style:normal;font-weight:normal" x="815.907" y="367.11">
        <tspan x="815.907" y="367.11"></tspan>
      </text>
    </g>
    <g>
      <rect style="fill: #ffffff; fill-opacity: 1; stroke-opacity: 1; stroke-width: 2; stroke: #ff0000" x="350.28" y="282.254" width="172.162" height="45.2791" rx="0" ry="0"/>
      <text font-size="12.8" style="fill: #000000; fill-opacity: 1; stroke: none;text-anchor:middle;font-family:sans-serif;font-style:normal;font-weight:normal" x="436.361" y="308.775">
        <tspan x="436.361" y="308.775">anchoring</tspan>
      </text>
    </g>
    <g>
      <rect style="fill: #ffffff; fill-opacity: 1; stroke-opacity: 1; stroke-width: 2; stroke: #ff0000" x="351.102" y="340.504" width="174.15" height="46.1127" rx="0" ry="0"/>
      <text font-size="12.8" style="fill: #000000; fill-opacity: 1; stroke: none;text-anchor:middle;font-family:sans-serif;font-style:normal;font-weight:normal" x="438.177" y="367.442">
        <tspan x="438.177" y="367.442">upp_verification</tspan>
      </text>
    </g>
    <g>
      <rect style="fill: #ffffff; fill-opacity: 1; stroke-opacity: 1; stroke-width: 2; stroke: #ff0000" x="350.154" y="403.518" width="172.769" height="38.7402" rx="0" ry="0"/>
      <text font-size="12.8" style="fill: #000000; fill-opacity: 1; stroke: none;text-anchor:middle;font-family:sans-serif;font-style:normal;font-weight:normal" x="436.539" y="426.769">
        <tspan x="436.539" y="426.769">uvs_verification</tspan>
      </text>
    </g>
    <g>
      <path style="fill: none; stroke-opacity: 1; stroke-width: 2; stroke: #000000" d="M 522.442 304.894 C 539.42,304.894 636.825,363.228 642.803,363.228"/>
      <polygon style="fill: #000000; fill-opacity: 1; stroke-opacity: 1; stroke-width: 2; stroke: #000000" fill-rule="evenodd" points="642.803,368.228 652.803,363.228 642.803,358.228 "/>
    </g>
    <g>
      <path style="fill: none; stroke-opacity: 1; stroke-width: 2; stroke: #000000" d="M 525.252 363.56 C 544.258,363.56 635.792,363.228 643.798,363.228"/>
      <polygon style="fill: #000000; fill-opacity: 1; stroke-opacity: 1; stroke-width: 2; stroke: #000000" fill-rule="evenodd" points="643.798,368.228 653.798,363.228 643.798,358.228 "/>
    </g>
    <g>
      <path style="fill: none; stroke-opacity: 1; stroke-width: 2; stroke: #000000" d="M 522.924 422.888 C 542.63,422.888 634.109,363.228 642.817,363.228"/>
      <polygon style="fill: #000000; fill-opacity: 1; stroke-opacity: 1; stroke-width: 2; stroke: #000000" fill-rule="evenodd" points="642.817,368.228 652.817,363.228 642.817,358.228 "/>
    </g>
    <text font-size="12.8" style="fill: #000000; fill-opacity: 1; stroke: none;text-anchor:start;font-family:sans-serif;font-style:normal;font-weight:normal" x="849.55" y="235.464">
      <tspan x="849.55" y="235.464"></tspan>
    </text>
    <text font-size="12.8" style="fill: #000000; fill-opacity: 1; stroke: none;text-anchor:start;font-family:sans-serif;font-style:normal;font-weight:normal" x="815.907" y="363.228">
      <tspan x="815.907" y="363.228"></tspan>
    </text>
    <g>
      <rect style="fill: #ffffff; fill-opacity: 1; stroke-opacity: 1; stroke-width: 2; stroke: #ff0000" x="668.676" y="386.082" width="127.25" height="45.2791" rx="0" ry="0"/>
      <text font-size="12.8" style="fill: #000000; fill-opacity: 1; stroke: none;text-anchor:middle;font-family:sans-serif;font-style:normal;font-weight:normal" x="732.301" y="412.603">
        <tspan x="732.301" y="412.603">Acct Fast Bucket</tspan>
      </text>
    </g>
    <g>
      <rect style="fill: #ffffff; fill-opacity: 1; stroke-opacity: 1; stroke-width: 2; stroke: #ff0000" x="836.872" y="382.708" width="127.25" height="45.2791" rx="0" ry="0"/>
      <text font-size="12.8" style="fill: #000000; fill-opacity: 1; stroke: none;text-anchor:middle;font-family:sans-serif;font-style:normal;font-weight:normal" x="900.497" y="409.229">
        <tspan x="900.497" y="409.229">Acct Enricher</tspan>
      </text>
    </g>
    <g>
      <ellipse style="fill: #ffffff; fill-opacity: 1; stroke-opacity: 1; stroke-width: 2; stroke: #000000" cx="841.961" cy="431.619" rx="17.0791" ry="17.0791"/>
      <ellipse style="fill: none; stroke-opacity: 1; stroke-width: 0.2; stroke: #000000" cx="841.961" cy="431.619" rx="17.0791" ry="17.0791"/>
      <ellipse style="fill: #ffffff; fill-opacity: 1; stroke-opacity: 1; stroke-width: 2; stroke: #000000" cx="841.961" cy="431.619" rx="14.6393" ry="14.6393"/>
      <ellipse style="fill: none; stroke-opacity: 1; stroke-width: 0.2; stroke: #000000" cx="841.961" cy="431.619" rx="14.6393" ry="14.6393"/>
      <ellipse style="fill: #ffffff; fill-opacity: 1; stroke-opacity: 1; stroke-width: 2; stroke: #000000" cx="841.961" cy="431.619" rx="9.7595" ry="9.7595"/>
      <ellipse style="fill: none; stroke-opacity: 1; stroke-width: 0.2; stroke: #000000" cx="841.961" cy="431.619" rx="9.7595" ry="9.7595"/>
      <line style="fill: none; stroke-opacity: 1; stroke-width: 0.2; stroke: #000000" x1="841.961" y1="421.86" x2="841.961" y2="424.299"/>
      <line style="fill: none; stroke-opacity: 1; stroke-width: 0.2; stroke: #000000" x1="841.961" y1="438.939" x2="841.961" y2="441.379"/>
      <line style="fill: none; stroke-opacity: 1; stroke-width: 0.2; stroke: #000000" x1="832.202" y1="431.619" x2="834.641" y2="431.619"/>
      <line style="fill: none; stroke-opacity: 1; stroke-width: 0.2; stroke: #000000" x1="849.281" y1="431.619" x2="851.721" y2="431.619"/>
      <line style="fill: none; stroke-opacity: 1; stroke-width: 0.2; stroke: #000000" x1="838.301" y1="437.719" x2="836.898" y2="439.976"/>
      <line style="fill: none; stroke-opacity: 1; stroke-width: 0.2; stroke: #000000" x1="835.861" y1="435.279" x2="833.605" y2="436.682"/>
      <line style="fill: none; stroke-opacity: 1; stroke-width: 0.2; stroke: #000000" x1="835.861" y1="427.959" x2="833.635" y2="426.526"/>
      <line style="fill: none; stroke-opacity: 1; stroke-width: 0.2; stroke: #000000" x1="838.301" y1="425.519" x2="836.929" y2="423.293"/>
      <line style="fill: none; stroke-opacity: 1; stroke-width: 0.2; stroke: #000000" x1="845.621" y1="425.519" x2="847.005" y2="423.232"/>
      <line style="fill: none; stroke-opacity: 1; stroke-width: 0.2; stroke: #000000" x1="848.061" y1="427.959" x2="850.36" y2="426.587"/>
      <line style="fill: none; stroke-opacity: 1; stroke-width: 0.2; stroke: #000000" x1="848.061" y1="435.279" x2="850.36" y2="436.675"/>
      <line style="fill: none; stroke-opacity: 1; stroke-width: 0.2; stroke: #000000" x1="845.621" y1="437.719" x2="847.005" y2="440.03"/>
      <line style="fill: none; stroke-opacity: 1; stroke-width: 0.2; stroke: #000000" x1="841.961" y1="431.619" x2="846.841" y2="431.619"/>
      <line style="fill: none; stroke-opacity: 1; stroke-width: 0.2; stroke: #000000" x1="841.961" y1="431.619" x2="843.467" y2="423.979"/>
    </g>
    <g>
      <polygon style="fill: #ffffff; fill-opacity: 1; stroke-opacity: 1; stroke-width: 2; stroke: #000000" fill-rule="evenodd" points="1043.63,336.528 1180.53,336.528 1192.53,348.528 1192.53,386.528 1043.63,386.528 "/>
      <polyline style="fill: none; stroke-opacity: 1; stroke-width: 1; stroke: #000000" points="1180.53,336.528 1180.53,348.528 1192.53,348.528 "/>
      <text font-size="12.8" style="fill: #000000; fill-opacity: 1; stroke: none;text-anchor:start;font-family:monospace;font-style:normal;font-weight:normal" x="1050.63" y="361.409">
        <tspan x="1050.63" y="361.409">Consumption </tspan>
        <tspan x="1050.63" y="377.409">Report for Tenant</tspan>
      </text>
    </g>
    <g>
      <line style="fill: none; stroke-opacity: 1; stroke-width: 2; stroke: #000000" x1="978.005" y1="362.316" x2="1032.64" y2="362.009"/>
      <polygon style="fill: #000000; fill-opacity: 1; stroke-opacity: 1; stroke-width: 2; stroke: #000000" fill-rule="evenodd" points="1032.66,367.009 1042.64,361.953 1032.61,357.009 "/>
    </g>
    <g>
      <rect style="fill: #ffffff; fill-opacity: 1; stroke-opacity: 1; stroke-width: 2; stroke: #ff0000" x="828.73" y="289.582" width="135.25" height="45.2791" rx="0" ry="0"/>
      <text font-size="12.8" style="fill: #000000; fill-opacity: 1; stroke: none;text-anchor:middle;font-family:sans-serif;font-style:normal;font-weight:normal" x="896.355" y="316.103">
        <tspan x="896.355" y="316.103">(sub)Tenant</tspan>
      </text>
    </g>
    <text font-size="12.7998" style="fill: #000000; fill-opacity: 1; stroke: none;text-anchor:start;font-family:sans-serif;font-style:normal;font-weight:normal" x="1119.28" y="94.9323">
      <tspan x="1119.28" y="94.9323"></tspan>
    </text>
    <g>
      <rect style="fill: #ffffff; fill-opacity: 1; stroke-opacity: 1; stroke-width: 2; stroke: #ff0000" x="671.73" y="290.082" width="135.25" height="45.2791" rx="0" ry="0"/>
      <text font-size="12.8" style="fill: #000000; fill-opacity: 1; stroke: none;text-anchor:middle;font-family:sans-serif;font-style:normal;font-weight:normal" x="739.355" y="316.603">
        <tspan x="739.355" y="316.603">Things</tspan>
      </text>
    </g>
  </g>
</svg>
