<?xml version="1.0" encoding="UTF-8" standalone="no"?>
<!DOCTYPE svg PUBLIC "-//W3C//DTD SVG 1.0//EN" "http://www.w3.org/TR/2001/PR-SVG-20010719/DTD/svg10.dtd">
<svg width="47cm" height="28cm" viewBox="347 180 936 543" xmlns="http://www.w3.org/2000/svg" xmlns:xlink="http://www.w3.org/1999/xlink">
  <g id="Background">
    <g>
      <rect style="fill: #d8e5e5; fill-opacity: 1; stroke-opacity: 1; stroke-width: 2; stroke: #000000" x="713.556" y="305.148" width="144.95" height="118" rx="0" ry="0"/>
      <text font-size="12.8" style="fill: #000000; fill-opacity: 1; stroke: none;text-anchor:middle;font-family:sans-serif;font-style:normal;font-weight:normal" x="786.031" y="328.029">
        <tspan x="786.031" y="328.029"></tspan>
        <tspan x="786.031" y="344.029"></tspan>
        <tspan x="786.031" y="360.029"></tspan>
        <tspan x="786.031" y="376.029">Aggregator Step II/</tspan>
        <tspan x="786.031" y="392.029">Accounting Service</tspan>
        <tspan x="786.031" y="408.029"></tspan>
      </text>
    </g>
    <g>
      <rect style="fill: #ffffff; fill-opacity: 1; stroke-opacity: 1; stroke-width: 2; stroke: #ff0000" x="350.28" y="282.254" width="172.162" height="45.2791" rx="0" ry="0"/>
      <text font-size="12.8" style="fill: #000000; fill-opacity: 1; stroke: none;text-anchor:middle;font-family:sans-serif;font-style:normal;font-weight:normal" x="436.361" y="308.775">
        <tspan x="436.361" y="308.775">Niomon + EventLog</tspan>
      </text>
    </g>
    <g>
      <rect style="fill: #ffffff; fill-opacity: 1; stroke-opacity: 1; stroke-width: 2; stroke: #ff0000" x="351.102" y="340.504" width="174.15" height="46.1127" rx="0" ry="0"/>
      <text font-size="12.8" style="fill: #000000; fill-opacity: 1; stroke: none;text-anchor:middle;font-family:sans-serif;font-style:normal;font-weight:normal" x="438.177" y="367.442">
        <tspan x="438.177" y="367.442">UPP Verification Service</tspan>
      </text>
    </g>
    <g>
      <ellipse style="fill: #ffffff; fill-opacity: 1; stroke-opacity: 1; stroke-width: 2; stroke: #1e90ff" cx="614.804" cy="304.977" rx="32.4459" ry="25.4874"/>
      <text font-size="12.8" style="fill: #000000; fill-opacity: 1; stroke: none;text-anchor:middle;font-family:sans-serif;font-style:normal;font-weight:normal" x="614.804" y="308.859">
        <tspan x="614.804" y="308.859">kafka</tspan>
      </text>
    </g>
    <g>
      <line style="fill: none; stroke-opacity: 1; stroke-width: 2; stroke: #000000" x1="647.248" y1="304.978" x2="702.556" y2="305.12"/>
      <polygon style="fill: #000000; fill-opacity: 1; stroke-opacity: 1; stroke-width: 2; stroke: #000000" fill-rule="evenodd" points="702.543,310.12 712.556,305.145 702.569,300.12 "/>
    </g>
    <g>
      <ellipse style="fill: #ffffff; fill-opacity: 1; stroke-opacity: 1; stroke-width: 2; stroke: #1e90ff" cx="615.709" cy="423.101" rx="32.1626" ry="25.3547"/>
      <text font-size="12.8" style="fill: #000000; fill-opacity: 1; stroke: none;text-anchor:middle;font-family:sans-serif;font-style:normal;font-weight:normal" x="615.709" y="426.982">
        <tspan x="615.709" y="426.982">http</tspan>
      </text>
    </g>
    <g>
      <line style="fill: none; stroke-opacity: 1; stroke-width: 2; stroke: #000000" x1="647.872" y1="423.1" x2="702.556" y2="423.14"/>
      <polygon style="fill: #000000; fill-opacity: 1; stroke-opacity: 1; stroke-width: 2; stroke: #000000" fill-rule="evenodd" points="702.552,428.14 712.556,423.147 702.56,418.14 "/>
    </g>
    <g>
      <rect style="fill: #ffffff; fill-opacity: 1; stroke-opacity: 1; stroke-width: 2; stroke: #ff0000" x="350.154" y="403.518" width="172.769" height="38.7402" rx="0" ry="0"/>
      <text font-size="12.8" style="fill: #000000; fill-opacity: 1; stroke: none;text-anchor:middle;font-family:sans-serif;font-style:normal;font-weight:normal" x="436.539" y="426.769">
        <tspan x="436.539" y="426.769">UVS</tspan>
      </text>
    </g>
    <g>
      <path style="fill: none; stroke-opacity: 1; stroke-width: 2; stroke: #000000" d="M 522.442 304.894 C 539.42,304.894 565.38,304.978 571.358,304.978"/>
      <polygon style="fill: #000000; fill-opacity: 1; stroke-opacity: 1; stroke-width: 2; stroke: #000000" fill-rule="evenodd" points="571.358,309.978 581.358,304.978 571.358,299.978 "/>
    </g>
    <g>
      <path style="fill: none; stroke-opacity: 1; stroke-width: 2; stroke: #000000" d="M 525.252 363.56 C 544.258,363.56 572.854,323 580.86,323"/>
      <polygon style="fill: #000000; fill-opacity: 1; stroke-opacity: 1; stroke-width: 2; stroke: #000000" fill-rule="evenodd" points="580.86,328 590.86,323 580.86,318 "/>
    </g>
    <g>
      <path style="fill: none; stroke-opacity: 1; stroke-width: 2; stroke: #000000" d="M 522.924 422.888 C 542.63,422.888 563.838,423.1 572.546,423.1"/>
      <polygon style="fill: #000000; fill-opacity: 1; stroke-opacity: 1; stroke-width: 2; stroke: #000000" fill-rule="evenodd" points="572.546,428.1 582.546,423.1 572.546,418.1 "/>
    </g>
    <g>
      <polygon style="fill: #ffffff; fill-opacity: 1; stroke-opacity: 1; stroke-width: 2; stroke: #000000" fill-rule="evenodd" points="353.326,181.01 576.676,181.01 588.676,193.01 588.676,263.018 353.326,263.018 "/>
      <polyline style="fill: none; stroke-opacity: 1; stroke-width: 1; stroke: #000000" points="576.676,181.01 576.676,193.01 588.676,193.01 "/>
      <text font-size="5.6896" style="fill: #000000; fill-opacity: 1; stroke: none;text-anchor:start;font-family:monospace;font-style:normal;font-weight:normal" x="360.326" y="199.291">
        <tspan x="360.326" y="199.291">"event":{</tspan>
        <tspan xml:space="preserve" x="360.326" y="206.403">  "id":"Unique Id of event as UUID",</tspan>
        <tspan xml:space="preserve" x="360.326" y="213.515">  "ownerId":"User Id on Keycloak as UUID",</tspan>
        <tspan xml:space="preserve" x="360.326" y="220.627">  "identityId":"OID as UUID",</tspan>
        <tspan xml:space="preserve" x="360.326" y="227.739">  "category":"upp_verification | anchoring | uvs_verification",</tspan>
        <tspan xml:space="preserve" x="360.326" y="234.851">  "subCategory": "extra category for event",</tspan>
        <tspan xml:space="preserve" x="360.326" y="241.963">  "externalId": "possible external id max 36 chars"</tspan>
        <tspan xml:space="preserve" x="360.326" y="249.075">  "occurredAt":"Timestamp of event"</tspan>
        <tspan x="360.326" y="256.187">}</tspan>
      </text>
    </g>
    <g>
      <polygon style="fill: #ffffff; fill-opacity: 1; stroke-opacity: 1; stroke-width: 2; stroke: #000000" fill-rule="evenodd" points="351.824,452.994 483.624,452.994 495.624,464.994 495.624,506.272 351.824,506.272 "/>
      <polyline style="fill: none; stroke-opacity: 1; stroke-width: 1; stroke: #000000" points="483.624,452.994 483.624,464.994 495.624,464.994 "/>
      <text font-size="5.64444" style="fill: #000000; fill-opacity: 1; stroke: none;text-anchor:start;font-family:monospace;font-style:normal;font-weight:normal" x="358.824" y="471.233">
        <tspan x="358.824" y="471.233">Every verification request </tspan>
        <tspan x="358.824" y="478.289">is matched against an event registry.</tspan>
        <tspan x="358.824" y="485.344">The tag will be matched</tspan>
        <tspan x="358.824" y="492.4">to a sub_category.</tspan>
        <tspan x="358.824" y="499.455"></tspan>
      </text>
    </g>
    <g>
      <polygon style="fill: #ffffff; fill-opacity: 1; stroke-opacity: 1; stroke-width: 2; stroke: #000000" fill-rule="evenodd" points="564.23,346.23 665.43,346.23 677.43,358.23 677.43,385.397 564.23,385.397 "/>
      <polyline style="fill: none; stroke-opacity: 1; stroke-width: 1; stroke: #000000" points="665.43,346.23 665.43,358.23 677.43,358.23 "/>
      <text font-size="5.64444" style="fill: #000000; fill-opacity: 1; stroke: none;text-anchor:start;font-family:monospace;font-style:normal;font-weight:normal" x="571.23" y="364.469">
        <tspan x="571.23" y="364.469">At this moment, it is </tspan>
        <tspan x="571.23" y="371.525">straightforward to know the </tspan>
        <tspan x="571.23" y="378.58">keycloak user id.</tspan>
      </text>
    </g>
    <g>
      <path style="fill: #ffffff; fill-opacity: 1; stroke-opacity: 1; stroke-width: 2; stroke: #000000" fill-rule="evenodd" d="M 725.39 320.643 C 733.39,315.143 737.39,313.31 745.39,313.31 C 753.39,313.31 757.39,315.143 765.39,320.643 L 765.39,349.977 C 757.39,355.477 753.39,357.31 745.39,357.31 C 737.39,357.31 733.39,355.477 725.39,349.977 L 725.39,320.643z"/>
      <path style="fill: none; stroke-opacity: 1; stroke-width: 2; stroke: #000000" d="M 725.39 320.643 C 733.39,326.143 737.39,327.977 745.39,327.977 C 753.39,327.977 757.39,326.143 765.39,320.643"/>
      <text font-size="12.8" style="fill: #000000; fill-opacity: 1; stroke: none;text-anchor:middle;font-family:sans-serif;font-style:normal;font-weight:normal" x="745.39" y="342.858">
        <tspan x="745.39" y="342.858">cass</tspan>
      </text>
    </g>
    <g>
      <ellipse style="fill: #ffffff; fill-opacity: 1; stroke-opacity: 1; stroke-width: 2; stroke: #1e90ff" cx="974.343" cy="422.969" rx="32.1626" ry="25.3547"/>
      <text font-size="12.8" style="fill: #000000; fill-opacity: 1; stroke: none;text-anchor:middle;font-family:sans-serif;font-style:normal;font-weight:normal" x="974.343" y="426.85">
        <tspan x="974.343" y="426.85">http</tspan>
      </text>
    </g>
    <g>
      <line style="fill: none; stroke-opacity: 1; stroke-width: 2; stroke: #000000" x1="858.508" y1="423.148" x2="931.18" y2="422.993"/>
      <polygon style="fill: #000000; fill-opacity: 1; stroke-opacity: 1; stroke-width: 2; stroke: #000000" fill-rule="evenodd" points="931.191,427.993 941.18,422.972 931.169,417.993 "/>
    </g>
    <g>
      <ellipse style="fill: #ffffff; fill-opacity: 1; stroke-opacity: 1; stroke-width: 2; stroke: #000000" cx="973.344" cy="584.858" rx="6" ry="6"/>
      <line style="fill: none; stroke-opacity: 1; stroke-width: 2; stroke: #000000" x1="949.344" y1="596.858" x2="997.344" y2="596.858"/>
      <line style="fill: none; stroke-opacity: 1; stroke-width: 2; stroke: #000000" x1="973.344" y1="590.858" x2="973.344" y2="620.858"/>
      <line style="fill: none; stroke-opacity: 1; stroke-width: 2; stroke: #000000" x1="973.344" y1="620.858" x2="949.344" y2="646.858"/>
      <line style="fill: none; stroke-opacity: 1; stroke-width: 2; stroke: #000000" x1="973.344" y1="620.858" x2="997.344" y2="646.858"/>
      <text font-size="12.8" style="fill: #000000; fill-opacity: 1; stroke: none;text-anchor:middle;font-family:sans-serif;font-style:normal;font-weight:normal" x="973.344" y="670.739">
        <tspan x="973.344" y="670.739">a Stakeholder/a System</tspan>
      </text>
    </g>
    <g>
      <line style="fill: none; stroke-opacity: 1; stroke-width: 2; stroke: #000000" x1="973.726" y1="554.888" x2="974.342" y2="448.324"/>
      <polygon style="fill: #000000; fill-opacity: 1; stroke-opacity: 1; stroke-width: 2; stroke: #000000" fill-rule="evenodd" points="968.726,554.859 973.668,564.888 978.726,554.917 "/>
    </g>
    <g>
      <polygon style="fill: #ffffff; fill-opacity: 1; stroke-opacity: 1; stroke-width: 2; stroke: #000000" fill-rule="evenodd" points="844.002,464.198 958.802,464.198 970.802,476.198 970.802,503.365 844.002,503.365 "/>
      <polyline style="fill: none; stroke-opacity: 1; stroke-width: 1; stroke: #000000" points="958.802,464.198 958.802,476.198 970.802,476.198 "/>
      <text font-size="5.64444" style="fill: #000000; fill-opacity: 1; stroke: none;text-anchor:start;font-family:monospace;font-style:normal;font-weight:normal" x="851.002" y="482.437">
        <tspan x="851.002" y="482.437">Through an </tspan>
        <tspan x="851.002" y="489.493">Ubirch Token (thing:getinfo), </tspan>
        <tspan x="851.002" y="496.548">a first aggregation is possible.</tspan>
      </text>
    </g>
    <g>
      <polygon style="fill: #ffffff; fill-opacity: 1; stroke-opacity: 1; stroke-width: 2; stroke: #000000" fill-rule="evenodd" points="731.24,428.444 859.64,428.444 871.64,440.444 871.64,460.555 731.24,460.555 "/>
      <polyline style="fill: none; stroke-opacity: 1; stroke-width: 1; stroke: #000000" points="859.64,428.444 859.64,440.444 871.64,440.444 "/>
      <text font-size="5.64444" style="fill: #000000; fill-opacity: 1; stroke: none;text-anchor:start;font-family:monospace;font-style:normal;font-weight:normal" x="738.24" y="446.683">
        <tspan x="738.24" y="446.683">OID ^ Category ^ Date | SubCategory </tspan>
        <tspan x="738.24" y="453.739">Where Date is like YYYY-MM</tspan>
      </text>
    </g>
    <g>
      <rect style="fill: #d8e5e5; fill-opacity: 1; stroke-opacity: 1; stroke-width: 2; stroke-dasharray: 4; stroke: #000000" x="1084.65" y="304.514" width="196.562" height="118" rx="0" ry="0"/>
      <text font-size="12.8" style="fill: #000000; fill-opacity: 1; stroke: none;text-anchor:middle;font-family:sans-serif;font-style:normal;font-weight:normal" x="1182.93" y="327.395">
        <tspan x="1182.93" y="327.395"></tspan>
        <tspan x="1182.93" y="343.395"></tspan>
        <tspan x="1182.93" y="359.395"></tspan>
        <tspan x="1182.93" y="375.395"></tspan>
        <tspan x="1182.93" y="391.395"></tspan>
        <tspan x="1182.93" y="407.395">Aggregator Step II/Enricher</tspan>
      </text>
    </g>
    <g>
      <path style="fill: #ffffff; fill-opacity: 1; stroke-opacity: 1; stroke-width: 2; stroke: #000000" fill-rule="evenodd" d="M 1093.45 325.815 C 1110.6,320.315 1119.17,318.482 1136.32,318.482 C 1153.47,318.482 1162.05,320.315 1179.2,325.815 L 1179.2,355.149 C 1162.05,360.649 1153.47,362.482 1136.32,362.482 C 1119.17,362.482 1110.6,360.649 1093.45,355.149 L 1093.45,325.815z"/>
      <path style="fill: none; stroke-opacity: 1; stroke-width: 2; stroke: #000000" d="M 1093.45 325.815 C 1110.6,331.315 1119.17,333.149 1136.32,333.149 C 1153.47,333.149 1162.05,331.315 1179.2,325.815"/>
      <text font-size="12.8" style="fill: #000000; fill-opacity: 1; stroke: none;text-anchor:middle;font-family:sans-serif;font-style:normal;font-weight:normal" x="1136.32" y="348.03">
        <tspan x="1136.32" y="348.03">postgresl [?]</tspan>
      </text>
    </g>
    <g>
      <line style="fill: none; stroke-opacity: 1; stroke-width: 2; stroke-dasharray: 4; stroke: #000000" x1="1006.51" y1="422.97" x2="1073.65" y2="422.578"/>
      <polygon style="fill: #000000; fill-opacity: 1; stroke-opacity: 1; stroke-width: 2; stroke: #000000" fill-rule="evenodd" points="1073.68,427.578 1083.65,422.52 1073.62,417.578 "/>
    </g>
    <g>
      <rect style="fill: #ffffff; fill-opacity: 1; stroke-opacity: 1; stroke-width: 2; stroke: #00ff00" x="1085.79" y="232.53" width="82.3" height="38" rx="0" ry="0"/>
      <text font-size="12.8" style="fill: #000000; fill-opacity: 1; stroke: none;text-anchor:middle;font-family:sans-serif;font-style:normal;font-weight:normal" x="1126.94" y="255.411">
        <tspan x="1126.94" y="255.411">Thing-API</tspan>
      </text>
    </g>
    <line style="fill: none; stroke-opacity: 1; stroke-width: 2; stroke-dasharray: 4; stroke: #000000" x1="1126.94" y1="270.53" x2="1146.8" y2="303.509"/>
    <g>
      <polygon style="fill: #ffffff; fill-opacity: 1; stroke-opacity: 1; stroke-width: 2; stroke: #000000" fill-rule="evenodd" points="1203.1,308.372 1266.9,308.372 1278.9,320.372 1278.9,347.539 1203.1,347.539 "/>
      <polyline style="fill: none; stroke-opacity: 1; stroke-width: 1; stroke: #000000" points="1266.9,308.372 1266.9,320.372 1278.9,320.372 "/>
      <text font-size="5.64444" style="fill: #000000; fill-opacity: 1; stroke: none;text-anchor:start;font-family:monospace;font-style:normal;font-weight:normal" x="1210.1" y="326.611">
        <tspan x="1210.1" y="326.611">Add extra info</tspan>
        <tspan x="1210.1" y="333.667">of interest and </tspan>
        <tspan x="1210.1" y="340.722">that be available</tspan>
      </text>
    </g>
    <g>
      <rect style="fill: #ffffff; fill-opacity: 1; stroke-opacity: 1; stroke-width: 2; stroke: #00ff00" x="1186.29" y="230.824" width="82.15" height="38" rx="0" ry="0"/>
      <text font-size="12.8" style="fill: #000000; fill-opacity: 1; stroke: none;text-anchor:middle;font-family:sans-serif;font-style:normal;font-weight:normal" x="1227.36" y="253.705">
        <tspan x="1227.36" y="253.705">Other-API</tspan>
      </text>
    </g>
    <line style="fill: none; stroke-opacity: 1; stroke-width: 2; stroke-dasharray: 4; stroke: #000000" x1="1227.36" y1="268.824" x2="1211.07" y2="303.547"/>
    <g>
      <line style="fill: none; stroke-opacity: 1; stroke-width: 2; stroke-dasharray: 4; stroke: #000000" x1="859.511" y1="364.031" x2="1072.65" y2="363.69"/>
      <polygon style="fill: #000000; fill-opacity: 1; stroke-opacity: 1; stroke-width: 2; stroke: #000000" fill-rule="evenodd" points="1072.65,368.69 1082.65,363.674 1072.64,358.69 "/>
    </g>
    <line style="fill: none; stroke-opacity: 1; stroke-width: 2; stroke-dasharray: 4; stroke: #000000" x1="971.58" y1="363.852" x2="973.112" y2="396.629"/>
    <g>
      <ellipse style="fill: #ffffff; fill-opacity: 1; stroke-opacity: 1; stroke-width: 2; stroke: #1e90ff" cx="1182.93" cy="531.275" rx="32.1626" ry="25.3547"/>
      <text font-size="12.8" style="fill: #000000; fill-opacity: 1; stroke: none;text-anchor:middle;font-family:sans-serif;font-style:normal;font-weight:normal" x="1182.93" y="535.156">
        <tspan x="1182.93" y="535.156">http</tspan>
      </text>
    </g>
    <g>
      <line style="fill: none; stroke-opacity: 1; stroke-width: 2; stroke: #000000" x1="1182.93" y1="422.514" x2="1182.93" y2="493.921"/>
      <polygon style="fill: #000000; fill-opacity: 1; stroke-opacity: 1; stroke-width: 2; stroke: #000000" fill-rule="evenodd" points="1177.93,493.921 1182.93,503.921 1187.93,493.921 "/>
    </g>
    <text font-size="12.8" style="fill: #000000; fill-opacity: 1; stroke: none;text-anchor:start;font-family:sans-serif;font-style:normal;font-weight:normal" x="849.55" y="235.464">
      <tspan x="849.55" y="235.464"></tspan>
    </text>
    <g>
      <line style="fill: none; stroke-opacity: 1; stroke-width: 2; stroke: #000000" x1="1153.74" y1="543.755" x2="1059.71" y2="583.942"/>
      <polygon style="fill: #000000; fill-opacity: 1; stroke-opacity: 1; stroke-width: 2; stroke: #000000" fill-rule="evenodd" points="1057.75,579.344 1050.52,587.872 1061.68,588.539 "/>
    </g>
    <g>
      <polygon style="fill: #ffffff; fill-opacity: 1; stroke-opacity: 1; stroke-width: 2; stroke: #000000" fill-rule="evenodd" points="929.116,682.668 992.916,682.668 1004.92,694.668 1004.92,721.835 929.116,721.835 "/>
      <polyline style="fill: none; stroke-opacity: 1; stroke-width: 1; stroke: #000000" points="992.916,682.668 992.916,694.668 1004.92,694.668 "/>
      <text font-size="5.64444" style="fill: #000000; fill-opacity: 1; stroke: none;text-anchor:start;font-family:monospace;font-style:normal;font-weight:normal" x="936.116" y="700.907">
        <tspan x="936.116" y="700.907">check counter </tspan>
        <tspan x="936.116" y="707.963">app for second</tspan>
        <tspan x="936.116" y="715.018">layer aggregation</tspan>
      </text>
    </g>
    <g>
      <rect style="fill: #ffffff; fill-opacity: 1; stroke-opacity: 1; stroke-width: 2; stroke: #ff0000" x="348.024" y="570.518" width="81.0988" height="29.0556" rx="0" ry="0"/>
      <text font-size="5.64444" style="fill: #000000; fill-opacity: 1; stroke: none;text-anchor:middle;font-family:sans-serif;font-style:normal;font-weight:normal" x="388.573" y="586.757">
        <tspan x="388.573" y="586.757">Acct Event Producer</tspan>
      </text>
    </g>
    <g>
      <ellipse style="fill: #ffffff; fill-opacity: 1; stroke-opacity: 1; stroke-width: 2; stroke: #1e90ff" cx="377.44" cy="637.891" rx="24.5697" ry="22.8128"/>
      <text font-size="5.64444" style="fill: #000000; fill-opacity: 1; stroke: none;text-anchor:middle;font-family:sans-serif;font-style:normal;font-weight:normal" x="377.44" y="639.602">
        <tspan x="377.44" y="639.602">interface</tspan>
      </text>
    </g>
    <g>
      <rect style="fill: #d8e5e5; fill-opacity: 1; stroke-opacity: 1; stroke-width: 2; stroke: #000000" x="520.372" y="571.268" width="80.7" height="29.0556" rx="0" ry="0"/>
      <text font-size="5.64444" style="fill: #000000; fill-opacity: 1; stroke: none;text-anchor:middle;font-family:sans-serif;font-style:normal;font-weight:normal" x="560.722" y="587.507">
        <tspan x="560.722" y="587.507">Counter/aggregators</tspan>
      </text>
    </g>
    <g>
      <rect style="fill: #ffffff; fill-opacity: 1; stroke-opacity: 1; stroke-width: 2; stroke: #00ff00" x="433.522" y="571.768" width="81.0988" height="29.0556" rx="0" ry="0"/>
      <text font-size="5.64444" style="fill: #000000; fill-opacity: 1; stroke: none;text-anchor:middle;font-family:sans-serif;font-style:normal;font-weight:normal" x="474.071" y="588.007">
        <tspan x="474.071" y="588.007">External Data</tspan>
      </text>
    </g>
    <g>
      <polygon style="fill: #ffffff; fill-opacity: 1; stroke-opacity: 1; stroke-width: 2; stroke: #000000" fill-rule="evenodd" points="415.522,623.768 441.922,623.768 453.922,635.768 453.922,648.824 415.522,648.824 "/>
      <polyline style="fill: none; stroke-opacity: 1; stroke-width: 1; stroke: #000000" points="441.922,623.768 441.922,635.768 453.922,635.768 "/>
      <text font-size="5.64444" style="fill: #000000; fill-opacity: 1; stroke: none;text-anchor:start;font-family:monospace;font-style:normal;font-weight:normal" x="422.522" y="642.007">
        <tspan x="422.522" y="642.007">a note</tspan>
      </text>
    </g>
    <g>
      <polygon style="fill: #ffffff; fill-opacity: 1; stroke-opacity: 1; stroke-width: 2; stroke: #000000" fill-rule="evenodd" points="571.416,455.272 655.616,455.272 667.616,467.272 667.616,487.383 571.416,487.383 "/>
      <polyline style="fill: none; stroke-opacity: 1; stroke-width: 1; stroke: #000000" points="655.616,455.272 655.616,467.272 667.616,467.272 "/>
      <text font-size="5.64444" style="fill: #000000; fill-opacity: 1; stroke: none;text-anchor:start;font-family:monospace;font-style:normal;font-weight:normal" x="578.416" y="473.511">
        <tspan x="578.416" y="473.511">Through an Ubirch</tspan>
        <tspan x="578.416" y="480.567">Token (thing:storedata)</tspan>
      </text>
    </g>
    <line style="fill: none; stroke-opacity: 1; stroke-width: 2; stroke-dasharray: 4; stroke: #000000" x1="481.824" y1="630.164" x2="553.35" y2="630.622"/>
    <text font-size="5.64444" style="fill: #000000; fill-opacity: 1; stroke: none;text-anchor:start;font-family:sans-serif;font-style:normal;font-weight:normal" x="490.994" y="643.002">
      <tspan x="490.994" y="643.002">not implemented</tspan>
    </text>
  </g>
</svg>
